<svg width="60" height="60" viewBox="0 0 60 60" fill="none" xmlns="http://www.w3.org/2000/svg">
<circle cx="30" cy="30" r="30" fill="#FFCA00"/>
<path d="M24 28V26C24 22.69 25 20 30 20C35 20 36 22.69 36 26V28" stroke="#3A3A3A" stroke-width="1.5" stroke-linecap="round" stroke-linejoin="round"/>
<path d="M30 36.5C31.3807 36.5 32.5 35.3807 32.5 34C32.5 32.6193 31.3807 31.5 30 31.5C28.6193 31.5 27.5 32.6193 27.5 34C27.5 35.3807 28.6193 36.5 30 36.5Z" stroke="#3A3A3A" stroke-width="1.5" stroke-linecap="round" stroke-linejoin="round"/>
<path d="M35 40H25C21 40 20 39 20 35V33C20 29 21 28 25 28H35C39 28 40 29 40 33V35C40 39 39 40 35 40Z" stroke="#3A3A3A" stroke-width="1.5" stroke-linecap="round" stroke-linejoin="round"/>
</svg>
