<svg width="60" height="60" viewBox="0 0 60 60" fill="none" xmlns="http://www.w3.org/2000/svg">
<circle cx="30" cy="30" r="30" fill="#FFCA00"/>
<path d="M32.55 20H27.45C25.65 20 25.25 20.9 25.02 22.01L24.2 25.93H35.8L34.9799 22.01C34.7499 20.9 34.35 20 32.55 20Z" stroke="#3A3A3A" stroke-width="1.5" stroke-linecap="round" stroke-linejoin="round"/>
<path d="M37.2401 32.32C37.3201 33.17 36.6401 33.9 35.7701 33.9H34.4101C33.6301 33.9 33.5201 33.57 33.3801 33.15L33.23 32.72C33.03 32.13 32.9001 31.73 31.8501 31.73H28.1401C27.1001 31.73 26.94 32.18 26.76 32.72L26.6101 33.15C26.4701 33.56 26.3601 33.9 25.5801 33.9H24.2201C23.3501 33.9 22.6701 33.17 22.7501 32.32L23.1601 27.9C23.2601 26.81 23.47 25.92 25.37 25.92H34.62C36.52 25.92 36.7301 26.81 36.8301 27.9L37.2401 32.32Z" stroke="#3A3A3A" stroke-width="1.5" stroke-linecap="round" stroke-linejoin="round"/>
<path d="M24.2 23.75H23.47" stroke="#3A3A3A" stroke-width="1.5" stroke-linecap="round" stroke-linejoin="round"/>
<path d="M36.53 23.75H35.8" stroke="#3A3A3A" stroke-width="1.5" stroke-linecap="round" stroke-linejoin="round"/>
<path d="M25.6501 28.83H27.8202" stroke="#3A3A3A" stroke-width="1.5" stroke-linecap="round" stroke-linejoin="round"/>
<path d="M32.1802 28.83H34.3502" stroke="#3A3A3A" stroke-width="1.5" stroke-linecap="round" stroke-linejoin="round"/>
<path d="M30 35V36" stroke="#3A3A3A" stroke-width="1.5" stroke-linecap="round" stroke-linejoin="round"/>
<path d="M30 39V40" stroke="#3A3A3A" stroke-width="1.5" stroke-linecap="round" stroke-linejoin="round"/>
<path d="M21 36L20 40" stroke="#3A3A3A" stroke-width="1.5" stroke-linecap="round" stroke-linejoin="round"/>
<path d="M39 36L40 40" stroke="#3A3A3A" stroke-width="1.5" stroke-linecap="round" stroke-linejoin="round"/>
</svg>
