<svg width="60" height="60" viewBox="0 0 60 60" fill="none" xmlns="http://www.w3.org/2000/svg">
<circle cx="30" cy="30" r="30" fill="#FFCA00"/>
<path d="M21.4062 35.4375C24.0814 35.4375 26.25 33.2689 26.25 30.5938C26.25 27.9186 24.0814 25.75 21.4062 25.75C18.7311 25.75 16.5625 27.9186 16.5625 30.5938C16.5625 33.2689 18.7311 35.4375 21.4062 35.4375Z" stroke="#3A3A3A" stroke-width="1.5" stroke-linecap="round" stroke-linejoin="round"/>
<path d="M28.4375 23.5625L25 27" stroke="#3A3A3A" stroke-width="1.5" stroke-linecap="round" stroke-linejoin="round"/>
<path d="M24.375 23.5625H28.4375V27.625" stroke="#3A3A3A" stroke-width="1.5" stroke-linecap="round" stroke-linejoin="round"/>
<path d="M37.5 32C39.9162 32 41.875 30.0412 41.875 27.625C41.875 25.2088 39.9162 23.25 37.5 23.25C35.0838 23.25 33.125 25.2088 33.125 27.625C33.125 30.0412 35.0838 32 37.5 32Z" stroke="#3A3A3A" stroke-width="1.5" stroke-linecap="round" stroke-linejoin="round"/>
<path d="M37.5 32V35.75" stroke="#3A3A3A" stroke-width="1.5" stroke-linecap="round" stroke-linejoin="round"/>
<path d="M39.375 33.875H35.625" stroke="#3A3A3A" stroke-width="1.5" stroke-linecap="round" stroke-linejoin="round"/>
</svg>
