<svg width="30" height="30" viewBox="0 0 30 30" fill="none" xmlns="http://www.w3.org/2000/svg">
<path d="M4.98612 18.3255L3.08613 16.4255C2.31113 15.6505 2.31113 14.3755 3.08613 13.6005L4.98612 11.7005C5.31112 11.3755 5.57362 10.738 5.57362 10.288V7.60045C5.57362 6.50045 6.47363 5.60048 7.57363 5.60048H10.2611C10.7111 5.60048 11.3486 5.33801 11.6736 5.01301L13.5736 3.11299C14.3486 2.33799 15.6236 2.33799 16.3986 3.11299L18.2987 5.01301C18.6237 5.33801 19.2611 5.60048 19.7111 5.60048H22.3987C23.4987 5.60048 24.3986 6.50045 24.3986 7.60045V10.288C24.3986 10.738 24.6611 11.3755 24.9861 11.7005L26.8861 13.6005C27.6611 14.3755 27.6611 15.6505 26.8861 16.4255L24.9861 18.3255C24.6611 18.6505 24.3986 19.2881 24.3986 19.7381V22.4254C24.3986 23.5254 23.4987 24.4256 22.3987 24.4256H19.7111C19.2611 24.4256 18.6237 24.688 18.2987 25.013L16.3986 26.913C15.6236 27.688 14.3486 27.688 13.5736 26.913L11.6736 25.013C11.3486 24.688 10.7111 24.4256 10.2611 24.4256H7.57363C6.47363 24.4256 5.57362 23.5254 5.57362 22.4254V19.7381C5.57362 19.2756 5.31112 18.638 4.98612 18.3255Z" stroke="#B6B6B6" stroke-width="1.5" stroke-linecap="round" stroke-linejoin="round"/>
<path d="M11.25 18.75L18.75 11.25" stroke="#B6B6B6" stroke-width="1.5" stroke-linecap="round" stroke-linejoin="round"/>
<path d="M18.1181 18.125H18.1294" stroke="#B6B6B6" stroke-width="2" stroke-linecap="round" stroke-linejoin="round"/>
<path d="M11.8681 11.875H11.8794" stroke="#B6B6B6" stroke-width="2" stroke-linecap="round" stroke-linejoin="round"/>
</svg>
