<svg width="24" height="26" viewBox="0 0 24 26" fill="none" xmlns="http://www.w3.org/2000/svg">
<mask id="mask0_156_1972" style="mask-type:alpha" maskUnits="userSpaceOnUse" x="1" y="1" width="22" height="23">
<path fill-rule="evenodd" clip-rule="evenodd" d="M1 1.04407H22.493V23.4788H1V1.04407Z" fill="white"/>
</mask>
<g mask="url(#mask0_156_1972)">
<path fill-rule="evenodd" clip-rule="evenodd" d="M6.10844 20.5366C6.68844 20.5366 7.23544 20.7662 7.81444 21.0094C11.3614 22.7212 15.5564 21.9426 18.2894 19.091C21.8954 15.325 21.8954 9.1991 18.2894 5.43524C16.5434 3.6128 14.2214 2.60973 11.7494 2.60973C9.27644 2.60973 6.95344 3.61385 5.20844 5.43628C2.47444 8.28788 1.73044 12.6665 3.35544 16.3333C3.58944 16.9377 3.81544 17.5263 3.81544 18.138C3.81544 18.7486 3.61444 19.3634 3.43744 19.9062C3.29144 20.3529 3.07044 21.0272 3.21244 21.1754C3.35144 21.3257 4.00144 21.0888 4.43044 20.9353C4.94544 20.7516 5.52944 20.5408 6.10844 20.5366ZM11.7244 23.479C10.1964 23.479 8.65844 23.1419 7.21944 22.4467C6.79544 22.2693 6.39844 22.1023 6.11344 22.1023C5.78544 22.1044 5.34444 22.263 4.91844 22.4164C4.04444 22.7296 2.95644 23.1199 2.15144 22.2828C1.34944 21.4447 1.71944 20.3122 2.01744 19.401C2.16444 18.9521 2.31544 18.4887 2.31544 18.138C2.31544 17.8499 2.18244 17.4825 1.97844 16.9533C0.105437 12.7312 0.971437 7.64282 4.14844 4.32883C6.17644 2.21101 8.87544 1.04407 11.7484 1.04407C14.6214 1.04407 17.3214 2.20997 19.3494 4.32779C23.5414 8.7033 23.5414 15.8219 19.3494 20.1974C17.2944 22.3434 14.5274 23.479 11.7244 23.479Z" fill="#B8B8B8"/>
</g>
<path fill-rule="evenodd" clip-rule="evenodd" d="M15.6964 13.7392C15.1444 13.7392 14.6924 13.2726 14.6924 12.6954C14.6924 12.1182 15.1354 11.6516 15.6874 11.6516H15.6964C16.2484 11.6516 16.6964 12.1182 16.6964 12.6954C16.6964 13.2726 16.2484 13.7392 15.6964 13.7392Z" fill="#B8B8B8"/>
<path fill-rule="evenodd" clip-rule="evenodd" d="M11.6876 13.7392C11.1356 13.7392 10.6836 13.2726 10.6836 12.6954C10.6836 12.1182 11.1256 11.6516 11.6786 11.6516H11.6876C12.2396 11.6516 12.6876 12.1182 12.6876 12.6954C12.6876 13.2726 12.2396 13.7392 11.6876 13.7392Z" fill="#B8B8B8"/>
<path fill-rule="evenodd" clip-rule="evenodd" d="M7.67832 13.7392C7.12632 13.7392 6.67432 13.2726 6.67432 12.6954C6.67432 12.1182 7.11732 11.6516 7.66932 11.6516H7.67832C8.23032 11.6516 8.67832 12.1182 8.67832 12.6954C8.67832 13.2726 8.23032 13.7392 7.67832 13.7392Z" fill="#B8B8B8"/>
</svg>
