<svg width="50" height="50" viewBox="0 0 50 50" fill="none" xmlns="http://www.w3.org/2000/svg">
<circle cx="25" cy="25" r="25" fill="white"/>
<path d="M17.5952 27.2573L16.7165 30.5377L13.5046 30.6063C11.532 26.9329 11.4971 22.5231 13.4112 18.8188L16.2704 19.343L17.5228 22.185C16.9592 23.8331 16.9841 25.6255 17.5933 27.2573H17.5952Z" fill="#FBBB00"/>
<path d="M37.0263 22.2651C37.8985 26.851 36.1673 31.5436 32.5259 34.4644L28.9252 34.2738L28.4163 31.0924C29.9048 30.2215 31.0489 28.8655 31.6567 27.2516H24.9071V22.2575H37.032L37.0263 22.2651Z" fill="#518EF8"/>
<path d="M32.5239 34.4644C29.5996 36.811 25.7837 37.7365 22.1093 36.9904C18.4348 36.2444 15.282 33.9038 13.5045 30.6025L17.5951 27.2534C18.3726 29.3256 20.0248 30.949 22.1103 31.6898C24.1958 32.4307 26.5019 32.2135 28.4124 31.0962L32.5239 34.4644Z" fill="#28B446"/>
<path d="M32.6785 14.9055L28.5898 18.2546C26.6493 17.0466 24.2641 16.7885 22.1102 17.5536C19.9563 18.3187 18.2683 20.0236 17.5247 22.185L13.4113 18.8188C15.1678 15.4271 18.3655 13.013 22.1087 12.2527C25.8518 11.4925 29.7379 12.4678 32.6785 14.9055Z" fill="#F14336"/>
</svg>
