<svg width="36" height="36" viewBox="0 0 36 36" fill="none" xmlns="http://www.w3.org/2000/svg">
<path d="M36 18C36 27.941 27.941 36 18 36C8.06 36 0 27.941 0 18C0 8.06 8.06 0 18 0C27.941 0 36 8.06 36 18Z" fill="#FFCC4D"/>
<path d="M16 18C15.581 18 15.191 17.735 15.051 17.316C14.848 16.717 14.034 15 13 15C11.938 15 11.112 16.827 10.949 17.316C10.774 17.839 10.211 18.124 9.684 17.948C9.16 17.774 8.877 17.207 9.052 16.683C9.177 16.307 10.356 13 13 13C15.644 13 16.823 16.307 16.949 16.684C17.124 17.208 16.841 17.775 16.317 17.949C16.211 17.983 16.104 18 16 18ZM26 18C25.581 18 25.191 17.735 25.052 17.316C24.849 16.717 24.033 15 23 15C21.938 15 21.111 16.827 20.948 17.316C20.773 17.839 20.212 18.124 19.683 17.948C19.16 17.774 18.876 17.207 19.051 16.683C19.177 16.307 20.355 13 23 13C25.645 13 26.823 16.307 26.948 16.684C27.123 17.208 26.84 17.775 26.316 17.949C26.211 17.983 26.104 18 26 18ZM18 22C14.377 22 11.973 21.578 9 21C8.321 20.869 7 21 7 23C7 27 11.595 32 18 32C24.404 32 29 27 29 23C29 21 27.679 20.868 27 21C24.027 21.578 21.623 22 18 22Z" fill="#664500"/>
<path d="M9 23C9 23 12 24 18 24C24 24 27 23 27 23C27 23 25.656 29.75 18 29.75C10.344 29.75 9 23 9 23Z" fill="#FFCC4D"/>
<path d="M17.9998 27.594C14.4038 27.594 11.7278 27.222 10.0628 26.849L9.23779 24.978C10.0608 25.29 13.1268 25.875 18.0008 25.875C22.9548 25.875 26.0378 25.259 26.8648 24.937L26.1638 26.779C24.5298 27.159 21.7448 27.594 17.9998 27.594Z" fill="#664500"/>
</svg>
