<svg width="45" height="45" viewBox="0 0 45 45" fill="none" xmlns="http://www.w3.org/2000/svg">
<circle cx="22.5" cy="22.5" r="22.5" fill="#FFCA00"/>
<path d="M27 29.43H23L18.55 32.39C17.89 32.83 17 32.36 17 31.56V29.43C14 29.43 12 27.43 12 24.43V18.4299C12 15.4299 14 13.4299 17 13.4299H27C30 13.4299 32 15.4299 32 18.4299V24.43C32 27.43 30 29.43 27 29.43Z" stroke="white" stroke-width="1.5" stroke-miterlimit="10" stroke-linecap="round" stroke-linejoin="round"/>
<path d="M22 22.3599V22.1499C22 21.4699 22.42 21.1099 22.84 20.8199C23.25 20.5399 23.66 20.1799 23.66 19.5199C23.66 18.5999 22.92 17.8599 22 17.8599C21.08 17.8599 20.34 18.5999 20.34 19.5199" stroke="white" stroke-width="1.5" stroke-linecap="round" stroke-linejoin="round"/>
<path d="M21.9955 24.75H22.0045" stroke="white" stroke-width="1.5" stroke-linecap="round" stroke-linejoin="round"/>
</svg>
